<svg xmlns="http://www.w3.org/2000/svg" viewBox="0 0 512 512" fill="none" role="img" aria-labelledby="title desc">
  <title id="title">Shelkovo icon</title>
  <desc id="desc">A simplified fence and sun mark derived from the Shelkovo logo.</desc>
  <rect x="32" y="32" width="448" height="448" rx="112" fill="#FEFBF8" />
  <rect x="32.5" y="32.5" width="447" height="447" rx="111.5" stroke="#EFE4D1" />
  <circle cx="384" cy="146" r="50" fill="#F7BC59" />
  <path d="M384 72V96" stroke="#F7BC59" stroke-width="10" stroke-linecap="round" />
  <path d="M438 92L422 110" stroke="#F7BC59" stroke-width="10" stroke-linecap="round" />
  <path d="M458 146H434" stroke="#F7BC59" stroke-width="10" stroke-linecap="round" />
  <path d="M440 198L422 182" stroke="#F7BC59" stroke-width="10" stroke-linecap="round" />
  <path d="M384 220V196" stroke="#F7BC59" stroke-width="10" stroke-linecap="round" />
  <path d="M328 198L344 180" stroke="#F7BC59" stroke-width="10" stroke-linecap="round" />
  <path d="M308 146H332" stroke="#F7BC59" stroke-width="10" stroke-linecap="round" />
  <path d="M330 92L348 108" stroke="#F7BC59" stroke-width="10" stroke-linecap="round" />
  <path d="M56 400C130 384 195 376 256 376C317 376 382 384 456 400V436H56V400Z" fill="#EEE6D4" />
  <path d="M56 400C130 384 195 376 256 376C317 376 382 384 456 400" stroke="#5F6B39" stroke-width="12" stroke-linecap="round" />
  <rect x="176" y="220" width="108" height="28" rx="14" fill="#74803E" />
  <rect x="228" y="220" width="108" height="28" rx="14" fill="#74803E" />
  <rect x="176" y="308" width="108" height="28" rx="14" fill="#74803E" />
  <rect x="228" y="308" width="108" height="28" rx="14" fill="#74803E" />
  <path d="M120 356V176L156 126L192 176V356Z" fill="#889155" stroke="#5F6B39" stroke-width="10" stroke-linejoin="round" />
  <path d="M221 356V176L256 126L291 176V356Z" fill="#889155" stroke="#5F6B39" stroke-width="10" stroke-linejoin="round" />
  <path d="M320 356V176L356 126L392 176V356Z" fill="#889155" stroke="#5F6B39" stroke-width="10" stroke-linejoin="round" />
  <path d="M142 154V336" stroke="#7B8449" stroke-width="6" stroke-linecap="round" />
  <path d="M160 154V336" stroke="#7B8449" stroke-width="6" stroke-linecap="round" />
  <path d="M243 154V336" stroke="#7B8449" stroke-width="6" stroke-linecap="round" />
  <path d="M261 154V336" stroke="#7B8449" stroke-width="6" stroke-linecap="round" />
  <path d="M342 154V336" stroke="#7B8449" stroke-width="6" stroke-linecap="round" />
  <path d="M360 154V336" stroke="#7B8449" stroke-width="6" stroke-linecap="round" />
</svg>
