<svg xmlns="http://www.w3.org/2000/svg" viewBox="0 0 64 64" fill="none" role="img" aria-labelledby="title desc">
  <title id="title">Favicon with the letter Sh as a fence</title>
  <desc id="desc">A simplified icon with blue sky, green grass, and the letter Sh built from brown fence slats.</desc>
  <defs>
    <linearGradient id="bg" x1="8" y1="6" x2="56" y2="58" gradientUnits="userSpaceOnUse">
      <stop stop-color="#F4F9FF" />
      <stop offset="1" stop-color="#D5E7F8" />
    </linearGradient>
    <linearGradient id="wood" x1="32" y1="11" x2="32" y2="51" gradientUnits="userSpaceOnUse">
      <stop stop-color="#B97A49" />
      <stop offset="0.52" stop-color="#945D36" />
      <stop offset="1" stop-color="#6D4224" />
    </linearGradient>
    <linearGradient id="grass" x1="32" y1="46" x2="32" y2="64" gradientUnits="userSpaceOnUse">
      <stop stop-color="#77C863" />
      <stop offset="1" stop-color="#3E8B3D" />
    </linearGradient>
  </defs>
  <rect width="64" height="64" rx="16" fill="url(#bg)" />
  <path d="M0 49C7 46 13 46 19 48C25 50 31 51 38 48C44 45 49 45 55 47C58 48 61 49 64 48V64H0V49Z" fill="url(#grass)" />
  <path d="M0 54C6 52 12 52 18 54C24 56 30 57 38 54C44 51 50 51 56 53C59 54 61 54 64 54V64H0V54Z" fill="#2F6F31" fill-opacity="0.42" />
  <rect x="12" y="11" width="11" height="37" rx="5.5" fill="url(#wood)" />
  <rect x="26.5" y="11" width="11" height="37" rx="5.5" fill="url(#wood)" />
  <rect x="41" y="11" width="11" height="37" rx="5.5" fill="url(#wood)" />
  <rect x="8" y="38.5" width="48" height="12" rx="6" fill="url(#wood)" />
  <rect x="14.5" y="14" width="2" height="28" rx="1" fill="#D99E68" fill-opacity="0.34" />
  <rect x="29" y="14" width="2" height="28" rx="1" fill="#D99E68" fill-opacity="0.34" />
  <rect x="43.5" y="14" width="2" height="28" rx="1" fill="#D99E68" fill-opacity="0.34" />
  <rect x="11" y="41" width="42" height="1.6" rx="0.8" fill="#E7BF98" fill-opacity="0.18" />
</svg>
