<svg xmlns="http://www.w3.org/2000/svg" viewBox="0 0 64 64">
  <path d="M8 50C16 48 24 47 32 47C40 47 48 48 56 50" stroke="#000000" stroke-width="3" stroke-linecap="round" />
  <rect x="20" y="26" width="14" height="5" rx="2.5" fill="#000000" />
  <rect x="30" y="26" width="14" height="5" rx="2.5" fill="#000000" />
  <rect x="20" y="38" width="14" height="5" rx="2.5" fill="#000000" />
  <rect x="30" y="38" width="14" height="5" rx="2.5" fill="#000000" />
  <path d="M12 52V26L17 18L22 26V52Z" fill="#000000" />
  <path d="M27 52V26L32 18L37 26V52Z" fill="#000000" />
  <path d="M42 52V26L47 18L52 26V52Z" fill="#000000" />
  <circle cx="48" cy="17" r="5" fill="#000000" />
  <path d="M48 7V10M57 17H54M53 25L51 22M40 13L43 14.5M41 24L43.5 22" stroke="#000000" stroke-width="2.5" stroke-linecap="round" />
</svg>
